<svg xmlns="http://www.w3.org/2000/svg" width="101" height="30" fill="none"><path fill="#7546DB" d="M69.42 22.592h-3.803V5.043h3.806l-.004 17.549ZM85.302 12.508c-.527-1.994-1.606-3.57-3.485-4.456a8.087 8.087 0 0 0-5.003-.58c-2.34.427-4.042 1.727-5.008 3.96a9.576 9.576 0 0 0-.602 2.388c-.13 1.134-.113 2.28.051 3.41.329 2.365 1.545 4.057 3.665 5.077 1.953.933 3.968 1.02 6.02.487 1.805-.473 3.126-1.602 4.042-3.24.23-.391.365-.832.396-1.288h-3.646a.334.334 0 0 0-.204.05.357.357 0 0 0-.14.162c-.192.353-.455.66-.773.9-.317.24-.681.406-1.067.49a4.335 4.335 0 0 1-2.042-.021c-1.781-.457-2.522-1.938-2.522-3.6H85.57a.626.626 0 0 0 .03-.12c0-1.212.016-2.433-.298-3.62Zm-10.215 1.191c.16-1.674 1.152-3.197 3.275-3.174 2.025.022 3.242 1.384 3.26 3.174h-6.534ZM96.57 21.062c-.015-.072-.02-.145-.035-.26-.227.212-.415.396-.623.576-.917.812-1.945 1.405-3.17 1.55-1.53.185-2.958-.048-4.164-1.12a3.767 3.767 0 0 1-1.208-2.347 5.622 5.622 0 0 1 .203-2.675c.455-1.339 1.422-2.14 2.697-2.598a12.803 12.803 0 0 1 2.66-.574 75.247 75.247 0 0 0 2.255-.352c.163-.033.32-.087.468-.16.515-.24.81-.619.767-1.228-.04-.575-.265-1.01-.818-1.212a4.522 4.522 0 0 0-2.783-.106c-.819.211-1.15.874-1.332 1.642-.016.057-.021.12-.035.174a.363.363 0 0 1-.04.072h-3.625c.02-.81.207-1.608.546-2.34.622-1.329 1.674-2.116 3.04-2.474 2.35-.61 4.66-.48 6.88.578 1.17.56 1.739 1.56 1.894 2.83.043.412.061.826.057 1.24v7.026c0 .582.046 1.164.094 1.744.063.559.311 1.08.702 1.474h-3.876s-.322-.47-.554-1.46Zm-.098-5.729-.094-.03c-.608.393-1.286.532-1.988.669a17.48 17.48 0 0 0-2.02.495c-.36.1-.678.321-.904.628-.225.306-.345.68-.34 1.064-.034.898.207 1.713 1.442 1.962a3.188 3.188 0 0 0 1.592-.12c1.102-.34 1.948-.981 2.135-2.209.117-.805.117-1.637.172-2.46l.005.001ZM56.465 23.086a8.93 8.93 0 0 1-3.467-.702c-1.637-.73-2.64-2.053-3.32-3.67-.623-1.495-.763-3.062-.61-4.666a8.552 8.552 0 0 1 1.66-4.348 5.809 5.809 0 0 1 3.481-2.262 9.532 9.532 0 0 1 4.981.12c1.721.52 2.906 1.692 3.742 3.286.85 1.639 1.108 3.385.952 5.218a8.542 8.542 0 0 1-1.631 4.44 5.922 5.922 0 0 1-3.86 2.363c-.641.115-1.288.151-1.928.221Zm3.526-7.968c-.085-.624-.124-1.27-.26-1.872-.352-1.552-1.308-2.64-2.924-2.78-1.587-.144-2.889.621-3.436 2.151a7.7 7.7 0 0 0-.163 4.483c.37 1.53 1.433 2.78 3.46 2.679 1.362-.069 2.284-.756 2.818-2.005.35-.84.444-1.742.509-2.656h-.004ZM37.94 22.526h-3.782V7.716h3.654V9.78l.053.02.383-.536c1.098-1.597 2.671-2.06 4.483-1.935a5.844 5.844 0 0 1 2.266.6 3.871 3.871 0 0 1 1.477 1.248c.38.535.622 1.161.702 1.819.087.567.131 1.14.133 1.714.01 3.16 0 6.324 0 9.487v.34h-3.906v-9.349c0-.337-.04-.673-.117-1a2.037 2.037 0 0 0-.656-1.148 1.978 1.978 0 0 0-1.212-.488 3.425 3.425 0 0 0-1.71.213c-.89.394-1.37 1.135-1.556 2.06a10.308 10.308 0 0 0-.188 1.937c-.021 2.47 0 4.938 0 7.405l-.023.36ZM6.328 1.82.598 8.317A2.408 2.408 0 0 0 0 9.972a2.4 2.4 0 0 0 .684 1.62l1.707 1.738c.217.22.39.483.506.772a2.429 2.429 0 0 1-.506 2.599L.735 18.38a2.401 2.401 0 0 0-.683 1.618c-.017.61.196 1.203.594 1.655l5.73 6.523c.21.239.465.431.75.566a2.265 2.265 0 0 0 2.596-.472l12.162-12.398a1.203 1.203 0 0 0 .344-.85 1.226 1.226 0 0 0-.344-.85L9.671 1.728a2.306 2.306 0 0 0-.777-.522 2.259 2.259 0 0 0-1.818.05 2.315 2.315 0 0 0-.748.565Z"/><path fill="#00FF9B" d="M14.717 0h8.575c.477 0 .934.194 1.271.54.338.347.527.816.527 1.306v3.817c0 .242.046.482.137.706.09.224.223.428.39.6a1.757 1.757 0 0 0 1.272.54h3.776c.236 0 .47.047.69.14.218.094.416.23.583.402.167.172.3.376.39.601.09.225.135.465.134.708v11.335A1.886 1.886 0 0 1 31.935 22a1.794 1.794 0 0 1-.583.4c-.218.092-.452.14-.688.14H26.89c-.477 0-.934.195-1.271.54a1.872 1.872 0 0 0-.527 1.305v3.775a1.87 1.87 0 0 1-.529 1.302 1.775 1.775 0 0 1-1.269.538h-8.53c-.356 0-.704-.109-1-.312a1.836 1.836 0 0 1-.663-.83 1.89 1.89 0 0 1-.1-1.068c.07-.358.243-.687.496-.945l10.29-10.49a1.887 1.887 0 0 0 0-2.615L13.445 3.151a1.86 1.86 0 0 1-.494-.945c-.07-.359-.035-.73.102-1.068.136-.338.367-.626.664-.829.297-.202.645-.31 1.001-.309Z"/></svg>